# xmcd
#
# Track frame offsets:
# 150
# 19323
# 40545
# 54942
# 72396
# 87300
# 105723
# 119127
# 137454
# 154929
#
# Disc length: 2309 seconds
#
#
# Revision: 1
# Processed by: cddbd v1.5.1PL2 Copyright (c) Steve Scherf et al.
# Submitted via: FreeRIP 2.944 
#
DISCID=8409030a
DTITLE=CDTeca Folha da Música Brasileira - Sertanejo
DYEAR=1999
DGENRE=Country
TTITLE0=Leandro e Leonardo - Eu Juro
TTITLE1=João Paulo e Daniel - Estou Apaixonado
TTITLE2=Chrystian and Ralf - Vida Dividida
TTITLE3=Gian e Giovani - Olha Amor
TTITLE4=Sérgio Reis - Panela Velha
TTITLE5=Renato Teixeira - Romaria
TTITLE6=Gian e Giovani - Viola Caipira
TTITLE7=Chrystian e Ralf - O Que Tiver Que Vir Virá
TTITLE8=Cézar e Paulinho - Mais Você do Que Eu
TTITLE9=Leandro e Leonardo - Temporal de Amor
EXTD=
EXTT0=
EXTT1=
EXTT2=
EXTT3=
EXTT4=
EXTT5=
EXTT6=
EXTT7=
EXTT8=
EXTT9=
PLAYORDER=
